# xmcd
# Track frame offsets:
# 150
# 17025
# 35017
# 48435
# 66960
# 84874
# 103650
# 119850
# 138895
#
# Disc length: 2032 seconds
# Revision: 0
# Processed by: cddbd v1.5.1PL0 Copyright (c) Steve Scherf et al.
# Submitted via: VisiTrax 2.9.10.228 - For more info visit www.synapsa.com
#
DISCID=7907ee09
DTITLE=Various Artist - Hits Monthly Nashville  PHN0209
DYEAR=1900
DGENRE=Karaoke
TTITLE0=Dixie Chicks - Long Time Gone
TTITLE1=McGraw, Tim - Unbroken
TTITLE2=Brooks, Garth - Thicker Than Blood
TTITLE3=Jackson, Alan - Work In Progress
TTITLE4=Howard, Rebecca Lynn - Forgive
TTITLE5=Yearwood, Trisha - I Don't Paint Myself Into Corners
TTITLE6=Cagle, Chris - Country By The Grace Of God
TTITLE7=Montgomery Gentry - My Town
TTITLE8=Wilkinsons, The - Outside Providence
EXTD=
EXTT0=
EXTT1=
EXTT2=
EXTT3=
EXTT4=
EXTT5=
EXTT6=
EXTT7=
EXTT8=
PLAYORDER=
